<svg width="36" height="36" viewBox="0 0 36 36" fill="none" xmlns="http://www.w3.org/2000/svg">
<path d="M18 1.351C14.6377 1.351 11.3509 2.34803 8.5553 4.21602C5.75966 6.084 3.58073 8.73904 2.29404 11.8454C1.00735 14.9517 0.670694 18.3699 1.32664 21.6675C1.98259 24.9652 3.60168 27.9943 5.97918 30.3718C8.35667 32.7493 11.3858 34.3684 14.6835 35.0244C17.9811 35.6803 21.3993 35.3436 24.5056 34.057C27.612 32.7703 30.267 30.5913 32.135 27.7957C34.003 25.0001 35 21.7133 35 18.351C34.9931 13.8444 33.1998 9.52441 30.0132 6.33778C26.8266 3.15115 22.5066 1.35788 18 1.351V1.351ZM18 4.751C19.1475 4.7558 20.2899 4.90532 21.4 5.196V12.135L14.484 5.219C15.6306 4.91048 16.8126 4.75315 18 4.751V4.751ZM24.8 6.574C26.8305 7.74848 28.5224 9.42866 29.711 11.451L24.8 16.359V6.574ZM11.09 6.634L16.008 11.551H6.22299C7.39532 9.5206 9.07168 7.82702 11.09 6.634V6.634ZM31.128 14.834C31.7476 17.0955 31.757 19.4808 31.155 21.747H24.216L31.128 14.834ZM4.84499 14.951H11.784L4.87099 21.864C4.25166 19.6024 4.24269 17.2172 4.84499 14.951V14.951ZM18 14.951C18.868 14.9486 19.7037 15.2802 20.334 15.877L20.404 15.947L20.411 15.94C21.0338 16.5689 21.3884 17.4148 21.4001 18.2998C21.4119 19.1848 21.0799 20.0398 20.474 20.685L20.404 20.755L20.411 20.762C19.7821 21.3848 18.9362 21.7394 18.0512 21.7511C17.1662 21.7629 16.3112 21.4309 15.666 20.825L15.596 20.755L15.589 20.762C14.9662 20.1331 14.6116 19.2872 14.5999 18.4022C14.5881 17.5172 14.9201 16.6622 15.526 16.017L15.596 15.947L15.589 15.94C15.9057 15.6241 16.2818 15.3741 16.6956 15.2043C17.1094 15.0346 17.5527 14.9485 18 14.951V14.951ZM11.2 20.343V30.128C9.16944 28.9535 7.47755 27.2733 6.28899 25.251L11.2 20.343ZM14.6 24.566L21.513 31.479C19.2515 32.0987 16.8662 32.108 14.6 31.506V24.566ZM19.992 25.15H29.777C28.6027 27.1809 26.9225 28.8732 24.9 30.062L19.992 25.15Z"  />
</svg>
