<svg width="36" height="36" viewBox="0 0 36 36" fill="none" xmlns="http://www.w3.org/2000/svg">
<g clip-path="url(#clip0)">
<path d="M29.025 15.045C28.5696 12.7624 27.4172 10.6774 25.7267 9.07751C24.0362 7.47759 21.8909 6.44161 19.5868 6.11244C17.2826 5.78328 14.9331 6.17715 12.8623 7.23973C10.7914 8.30232 9.10131 9.98126 8.025 12.045C5.72026 12.2754 3.59309 13.3856 2.08601 15.1444C0.57894 16.9033 -0.191992 19.1755 -0.0663998 21.4884C0.0591922 23.8012 1.07164 25.9765 2.76031 27.5619C4.44898 29.1472 6.68386 30.0205 9 30H28.5C30.4436 30.0055 32.3132 29.2549 33.7133 27.9069C35.1135 26.5588 35.9344 24.7191 36.0026 22.7767C36.0708 20.8343 35.3809 18.9415 34.0787 17.4986C32.7765 16.0557 30.9642 15.1758 29.025 15.045V15.045Z"  />
</g>
<defs>
<clipPath id="clip0">
<rect width="36" height="36" fill="white"/>
</clipPath>
</defs>
</svg>
