<svg width="36" height="36" viewBox="0 0 36 36" fill="none" xmlns="http://www.w3.org/2000/svg">
<path d="M14.098 2.017L13.314 6.05C12.0134 6.5383 10.8016 7.23656 9.727 8.117L5.853 6.777L2.12 13.239L5.22 15.939C5.10404 16.6206 5.04351 17.3106 5.039 18.002C5.04437 18.6934 5.1049 19.3832 5.22 20.065V20.065L2.12 22.765L5.853 29.217L9.724 27.884C10.8001 28.7622 12.0128 29.4581 13.314 29.944L14.098 33.977H21.558L22.342 29.944C23.6425 29.4572 24.8542 28.7603 25.929 27.881L29.802 29.217L33.532 22.758L30.432 20.058C30.6735 18.6939 30.6735 17.2981 30.432 15.934V15.934L33.532 13.234L29.802 6.777L25.932 8.11C24.8559 7.23177 23.6432 6.53588 22.342 6.05L21.558 2.017H14.098ZM16.733 5.217H18.924L19.545 8.417L21.212 9.048C22.1874 9.41112 23.0965 9.93206 23.903 10.59L25.283 11.72L28.355 10.665L29.455 12.56L27.001 14.695L27.282 16.452C27.4689 17.4769 27.4689 18.5271 27.282 19.552L26.998 21.309L29.448 23.444L28.348 25.344L25.279 24.286L23.899 25.417C23.0937 26.075 22.1855 26.5959 21.211 26.959L19.544 27.59L18.923 30.79H16.732L16.111 27.59L14.448 26.959C13.4712 26.5963 12.5607 26.0753 11.753 25.417L10.373 24.287L7.302 25.342L6.202 23.447L8.659 21.309L8.37899 19.557C8.29123 19.0432 8.24441 18.5232 8.239 18.002C8.24363 17.4821 8.29045 16.9634 8.37899 16.451L8.663 14.694L6.206 12.556L7.30599 10.656L10.373 11.717L11.753 10.584C12.5606 9.92532 13.4711 9.40403 14.448 9.041L16.115 8.41L16.733 5.217ZM17.833 11.61C16.5686 11.61 15.3326 11.9849 14.2812 12.6874C13.2299 13.3899 12.4105 14.3883 11.9266 15.5565C11.4428 16.7247 11.3162 18.0101 11.5628 19.2502C11.8095 20.4903 12.4184 21.6295 13.3125 22.5235C14.2065 23.4176 15.3457 24.0265 16.5858 24.2732C17.8259 24.5198 19.1113 24.3932 20.2795 23.9094C21.4477 23.4255 22.4461 22.6061 23.1486 21.5548C23.8511 20.5034 24.226 19.2674 24.226 18.003C24.2199 16.3082 23.5438 14.6846 22.3452 13.4863C21.1466 12.2881 19.5228 11.6125 17.828 11.607L17.833 11.61ZM17.833 14.81C18.4659 14.81 19.0846 14.9977 19.6108 15.3493C20.1371 15.7009 20.5472 16.2007 20.7894 16.7854C21.0316 17.3701 21.095 18.0135 20.9715 18.6343C20.848 19.255 20.5433 19.8252 20.0957 20.2727C19.6482 20.7203 19.078 21.025 18.4573 21.1485C17.8365 21.272 17.1931 21.2086 16.6084 20.9664C16.0237 20.7242 15.5239 20.3141 15.1723 19.7878C14.8207 19.2616 14.633 18.6429 14.633 18.01C14.6298 17.589 14.7102 17.1715 14.8695 16.7818C15.0288 16.392 15.2638 16.0378 15.561 15.7395C15.8581 15.4412 16.2115 15.2048 16.6007 15.0441C16.9898 14.8833 17.407 14.8014 17.828 14.803L17.833 14.81Z"  />
</svg>
